{
    "accessors": {
        "accessor_31": {
            "bufferView": "bufferView_49",
            "byteOffset": 0,
            "byteStride": 0,
            "componentType": 5123,
            "count": 65532,
            "type": "SCALAR"
        },
        "accessor_33": {
            "bufferView": "bufferView_50",
            "byteOffset": 0,
            "byteStride": 12,
            "componentType": 5126,
            "count": 65532,
            "max": [
                5.719980239868164,
                1.2248200178146362,
                3.89959979057312
            ],
            "min": [
                -2.40051007270813,
                -0.05526149645447731,
                -3.4088399410247803
            ],
            "type": "VEC3"
        },
        "accessor_35": {
            "bufferView": "bufferView_50",
            "byteOffset": 786384,
            "byteStride": 12,
            "componentType": 5126,
            "count": 65532,
            "max": [
                0.996105968952179,
                1,
                0.9973329901695251
            ],
            "min": [
                -0.9973819851875305,
                -1,
                -0.9997889995574951
            ],
            "type": "VEC3"
        },
        "accessor_37": {
            "bufferView": "bufferView_50",
            "byteOffset": 1572768,
            "byteStride": 8,
            "componentType": 5126,
            "count": 65532,
            "max": [
                1,
                1
            ],
            "min": [
                0,
                0.09999996423721313
            ],
            "type": "VEC2"
        },
        "accessor_41": {
            "bufferView": "bufferView_49",
            "byteOffset": 131064,
            "byteStride": 0,
            "componentType": 5123,
            "count": 5127,
            "type": "SCALAR"
        },
        "accessor_43": {
            "bufferView": "bufferView_50",
            "byteOffset": 2097024,
            "byteStride": 12,
            "componentType": 5126,
            "count": 5127,
            "max": [
                5.719980239868164,
                0.9632659554481506,
                -2.9363601207733154
            ],
            "min": [
                -2.40051007270813,
                -0.05588969588279724,
                -4.220890045166016
            ],
            "type": "VEC3"
        },
        "accessor_45": {
            "bufferView": "bufferView_50",
            "byteOffset": 2158548,
            "byteStride": 12,
            "componentType": 5126,
            "count": 5127,
            "max": [
                0.9997090101242065,
                1,
                0.9938420057296753
            ],
            "min": [
                -0.999709963798523,
                -0.07243599742650986,
                -0.9780089855194092
            ],
            "type": "VEC3"
        },
        "accessor_47": {
            "bufferView": "bufferView_50",
            "byteOffset": 2220072,
            "byteStride": 8,
            "componentType": 5126,
            "count": 5127,
            "max": [
                1,
                0.15000003576278687
            ],
            "min": [
                0,
                0
            ],
            "type": "VEC2"
        }
    },
    "animations": {},
    "asset": {
        "generator": "collada2gltf@",
        "premultipliedAlpha": true,
        "profile": {
            "api": "WebGL",
            "version": "1.0.2"
        },
        "version": "1.0"
    },
    "bufferViews": {
        "bufferView_49": {
            "buffer": "bart_sounds",
            "byteLength": 141320,
            "byteOffset": 0,
            "target": 34963
        },
        "bufferView_50": {
            "buffer": "bart_sounds",
            "byteLength": 2261088,
            "byteOffset": 141320,
            "target": 34962
        }
    },
    "buffers": {
        "bart_sounds": {
            "byteLength": 2402408,
            "type": "arraybuffer",
            "uri": "data:application/octet-stream;base64,"
        }
    },
    "images": {
        "file7-image": {
            "name": "file7",
            "uri": "data:image/jpeg;base64,"
        }
    },
    "materials": {
        "lambert5-fx": {
            "name": "lambert5",
            "technique": "technique0",
            "values": {
                "ambient": [
                    0,
                    0,
                    0,
                    1
                ],
                "diffuse": "texture_file7-image",
                "emission": [
                    0,
                    0,
                    0,
                    1
                ],
                "transparency": 0
            }
        }
    },
    "meshes": {
        "pPlane1_displacement1-lib": {
            "name": "pPlane1_displacement1Mesh",
            "primitives": [
                {
                    "attributes": {
                        "NORMAL": "accessor_35",
                        "POSITION": "accessor_33",
                        "TEXCOORD_0": "accessor_37"
                    },
                    "indices": "accessor_31",
                    "material": "lambert5-fx",
                    "mode": 4
                }
            ]
        },
        "pPlane1_displacement1-libsplit_0": {
            "name": "pPlane1_displacement1Mesh1",
            "primitives": [
                {
                    "attributes": {
                        "NORMAL": "accessor_45",
                        "POSITION": "accessor_43",
                        "TEXCOORD_0": "accessor_47"
                    },
                    "indices": "accessor_41",
                    "material": "lambert5-fx",
                    "mode": 4
                }
            ]
        }
    },
    "nodes": {
        "pPlane1_displacement1": {
            "children": [],
            "matrix": [
                1,
                0,
                0,
                0,
                0,
                1,
                0,
                0,
                0,
                0,
                1,
                0,
                0,
                0,
                0,
                1
            ],
            "meshes": [
                "pPlane1_displacement1-lib",
                "pPlane1_displacement1-libsplit_0"
            ],
            "name": "pPlane1_displacement1"
        }
    },
    "programs": {
        "program_0": {
            "attributes": [
                "a_normal",
                "a_position",
                "a_texcoord0"
            ],
            "fragmentShader": "bart_sounds0FS",
            "vertexShader": "bart_sounds0VS"
        }
    },
    "samplers": {
        "sampler_0": {
            "magFilter": 9729,
            "minFilter": 9729,
            "wrapS": 10497,
            "wrapT": 10497
        }
    },
    "scene": "defaultScene",
    "scenes": {
        "defaultScene": {
            "nodes": [
                "pPlane1_displacement1"
            ]
        }
    },
    "shaders": {
        "bart_sounds0FS": {
            "type": 35632,
            "uri": "data:text/plain;base64,"
        },
        "bart_sounds0VS": {
            "type": 35633,
            "uri": "data:text/plain;base64,"
        }
    },
    "skins": {},
    "techniques": {
        "technique0": {
            "attributes": {
                "a_normal": "normal",
                "a_position": "position",
                "a_texcoord0": "texcoord0"
            },
            "parameters": {
                "ambient": {
                    "type": 35666
                },
                "diffuse": {
                    "type": 35678
                },
                "emission": {
                    "type": 35666
                },
                "modelViewMatrix": {
                    "semantic": "MODELVIEW",
                    "type": 35676
                },
                "normal": {
                    "semantic": "NORMAL",
                    "type": 35665
                },
                "normalMatrix": {
                    "semantic": "MODELVIEWINVERSETRANSPOSE",
                    "type": 35675
                },
                "position": {
                    "semantic": "POSITION",
                    "type": 35665
                },
                "projectionMatrix": {
                    "semantic": "PROJECTION",
                    "type": 35676
                },
                "texcoord0": {
                    "semantic": "TEXCOORD_0",
                    "type": 35664
                },
                "transparency": {
                    "type": 5126
                }
            },
            "program": "program_0",
            "states": {
                "enable": [
                    2929,
                    2884
                ]
            },
            "uniforms": {
                "u_ambient": "ambient",
                "u_diffuse": "diffuse",
                "u_emission": "emission",
                "u_modelViewMatrix": "modelViewMatrix",
                "u_normalMatrix": "normalMatrix",
                "u_projectionMatrix": "projectionMatrix",
                "u_transparency": "transparency"
            }
        }
    },
    "textures": {
        "texture_file7-image": {
            "format": 6408,
            "internalFormat": 6408,
            "sampler": "sampler_0",
            "source": "file7-image",
            "target": 3553,
            "type": 5121
        }
    }
}